<?xml version="1.0" encoding="utf-8"?>
<!-- Generator: Adobe Illustrator 19.0.0, SVG Export Plug-In . SVG Version: 6.00 Build 0)  -->
<svg version="1.1" id="Layer_1" xmlns="http://www.w3.org/2000/svg" xmlns:xlink="http://www.w3.org/1999/xlink" x="0px" y="0px"
	 viewBox="0 0 765.8 765.8" style="enable-background:new 0 0 765.8 765.8;" xml:space="preserve">
<style type="text/css">
	.st0{fill:#FFFFFF;}
</style>
<g>
	<path class="st0" d="M412.3,39.5c19,3.6,38.3,6.4,57.1,11c240.8,59.7,346.8,346.2,203.1,548.3c-23,32.3-52.9,30-70.7-5.6
		c-60.9-121.8-121.6-243.6-183-365.2c-4.5-9-12-18.2-20.5-23.2c-17.8-10.6-38.7-1.6-49.2,19.4c-30.2,60-60.1,120.1-90.1,180.2
		c-31.7,63.4-63.3,126.8-95.1,190.1c-16.9,33.8-47.2,36.1-69.3,5.4C-62.2,381.3,75.7,71.9,343.2,42c3.6-0.4,7.1-1.6,10.7-2.5
		C373.3,39.5,392.8,39.5,412.3,39.5z M445.9,120.8c64.7,129.3,129.1,258,194.3,388.5C718.7,336,601.9,147.5,445.9,120.8z
		 M125.8,509.6c65.5-131.1,129.8-259.7,194.8-389.6C159.6,151.7,49.4,337.4,125.8,509.6z"/>
	<path class="st0" d="M385.1,748.5c-55.4-0.1-106.5-11.4-154.9-34.6c-25.4-12.2-31.9-30.6-19.4-55.7
		c45.8-91.9,91.9-183.7,137.7-275.7c7.2-14.5,17.5-23.9,34.3-24c16.7-0.1,27.3,9,34.5,23.5c46,92.4,92.3,184.6,138.3,276.9
		c12.1,24.2,5.4,42.7-19.3,54.7C488,737,436.9,748.3,385.1,748.5z M383.1,474.6c-31.6,63.2-62.1,124.2-92.6,185.3
		c50.3,22.4,147.5,21.8,184.8-1C444.9,598.2,414.5,537.5,383.1,474.6z"/>
</g>
</svg>
