<?xml version="1.0" encoding="utf-8"?>
<!-- Generator: Adobe Illustrator 19.0.0, SVG Export Plug-In . SVG Version: 6.00 Build 0)  -->
<svg version="1.1" id="Layer_1" xmlns="http://www.w3.org/2000/svg" xmlns:xlink="http://www.w3.org/1999/xlink" x="0px" y="0px"
	 viewBox="0 0 1000 1000" style="enable-background:new 0 0 1000 1000;" xml:space="preserve">
<style type="text/css">
	.st0{fill:#FFFFFF;}
</style>
<g>
	<path class="st0" d="M495.4,717.7c-101-0.7-207.5-14-309.5-53.7c-50.8-19.8-97.1-46.3-134.1-87.6c-32.6-36.4-47.7-95.8-6.4-149
		c26.1-33.7,59.1-57.7,96.7-76.4c69.4-34.5,143.4-53.3,219.7-64c87.4-12.2,174.8-13.3,262.3-2.1c86.7,11.1,171,31.2,248.7,72.9
		c27.7,14.8,52.9,33.2,73.8,56.7c47.4,53.2,47.1,114.5-1,167.1c-37.1,40.6-84.6,65.1-135.1,84.2
		C711.5,703.4,608.4,717.3,495.4,717.7z M498.7,690.9c20.5-1,41.1-1.4,61.5-3.1c66.5-5.4,131.5-18.1,193.4-43.6
		c38.6-16,74.5-36.6,102.8-68c46.1-51.2,44.8-110.5-3.1-160.2c-25.9-26.8-57-45.8-90.9-60.8c-60-26.5-123-40.9-188-46.8
		c-104.3-9.5-206.6,0.2-305.9,34.8c-45.4,15.9-87.7,37.8-121.2,73.4c-48.6,51.8-47.6,112.5,1.7,163.5c24.1,24.9,52.7,43.1,84.1,57.2
		C317.6,675.5,406.8,690,498.7,690.9z"/>
	<path class="st0" d="M501.7,671.2c-96.5,0.3-174.3-76.4-174.7-172.3c-0.4-96.5,76.4-174.3,172.4-174.6
		c97.5-0.3,174.9,76.1,175.1,172.8C674.6,593.7,598,670.9,501.7,671.2z M649.3,432.3c-30.3,0-60.3-1.1-90.3,0.4
		c-19.1,1-32.5,13.1-38.7,31.4c-12.6,36.8,0,47,31.5,47.6c13.2,0.2,26.4-0.4,39.6,0.6c4.1,0.3,10.1,4.5,11.1,8
		c1,3.7-1.9,10-5.2,12.9c-3.4,3-9.3,4.3-14.1,4.5c-18,0.7-35.9,0.7-53.9,0.8c-23.4,0.2-23.4,0.1-27.7,23.1c-0.2,0.9,0.3,2,0.6,4.1
		c27.5,0,54.9,0,82.4,0c32,0.1,53.8-21,54.9-52.9c0.4-13.1-6-23-18.7-26.3c-7.3-1.9-15.2-2.4-22.8-2.7c-11-0.4-22,0.4-33-0.5
		c-3.8-0.3-10.6-5.2-10.2-6.9c1-5.2,3.8-11.1,7.8-14.2c3.6-2.7,9.8-2.5,14.8-2.7c14.3-0.4,28.6-0.3,42.9-0.5
		c25.1-0.3,25.1-0.3,29.5-24.7C649.9,433.8,649.7,433.5,649.3,432.3z M406.7,431.7c-11,0-20.2-0.4-29.3,0.3c-2.5,0.2-6.4,3.5-7,5.9
		c-6.4,29.4-13.2,58.7-17.9,88.4c-3.9,24.5,7,37.1,31.8,38.3c24.9,1.2,49.9,0.5,74.8,1.1c6.8,0.2,7.5-4.1,8.6-8.9
		c5.9-28,11.9-55.9,17.9-83.9c2.9-13.5,5.8-26.9,8.8-40.7c-12.6,0-23.8,0-35.3,0c-7.7,35-15.3,69.2-23.1,104.4
		c-9.7,0-18.8,0.2-27.9,0c-18.9-0.4-22.3-5.1-18.3-23.9C395.5,486.1,400.9,459.6,406.7,431.7z"/>
	<path class="st0" d="M820.8,431.9c0.6,1.1,1,1.4,1,1.7c-4.2,25.7-4.2,25.5-30.2,25.6c-12.8,0.1-25.7,0.5-38.4,1.8
		c-13,1.4-18.4,7.6-21.4,22.9c13,0,25.7,0,38.4,0c12.8,0,25.6,0,40,0c-1.4,8.9-2.1,16.8-4.3,24.3c-0.6,2.1-5.5,4.2-8.5,4.3
		c-20.9,0.6-41.8,0.4-62.7,1.1c-3.7,0.1-10.6,4-10.4,5.4c0.7,5.2,2.4,12.3,6.1,14.6c5.6,3.3,13.2,4,20,4.2c16,0.5,32.1,0.2,48,0.2
		c0.2,1.9,0.4,2.7,0.4,3.4c-2.5,23.3-2.5,23.5-25.5,23.8c-16.5,0.2-33,0.9-49.4-0.5c-23.2-2.1-38.1-17.6-37.7-40.7
		c0.2-14.7,2.1-30.2,7.1-43.9c10.8-29.4,32.9-46.4,64.9-47.8C779.1,431.2,800.2,431.9,820.8,431.9z"/>
	<path class="st0" d="M262.3,565.5c-12.3,0-23.9,0-37.7,0c7.4-35.5,14.7-70.4,22.2-106.2c-8-0.7-15.5-1.3-24-2.1
		c0.5-4.1,0.8-7.7,1.5-11.1c2.9-15.4,3-15.7,18.8-15.3c7,0.2,10.1-1.8,11.9-9c9.2-36.4,14.4-40.1,52.2-40.1c8.8,0,17.5,0,27.6,0
		c-1.5,8.1-2.3,15.2-4.3,22c-0.7,2.2-4.1,4.3-6.7,5.1c-2.6,0.8-5.8-0.1-8.7-0.1c-17.1-0.5-21,3.1-23,21.7c10.5,0,20.9,0,32.6,0
		c-1.9,9.6-3.4,17.7-5.2,26.9c-11.1,0-22,0-34.1,0C277.5,493.9,269.9,529.5,262.3,565.5z"/>
</g>
</svg>
