<?xml version="1.0" encoding="utf-8"?>
<!-- Generator: Adobe Illustrator 19.0.0, SVG Export Plug-In . SVG Version: 6.00 Build 0)  -->
<svg version="1.1" id="Layer_1" xmlns="http://www.w3.org/2000/svg" xmlns:xlink="http://www.w3.org/1999/xlink" x="0px" y="0px"
	 viewBox="0 0 1000 1000" style="enable-background:new 0 0 1000 1000;" xml:space="preserve">
<style type="text/css">
	.st0{fill:#FFFFFF;}
</style>
<path class="st0" d="M22,751c0-21.8,0.1-43.6,0.1-65.4c0-60.4,0-120.9,0-181.3c0-73.9-0.1-147.9-0.1-221.8c0-10.5,0-21,0-31.5
	c0.7,0,1.3,0,2,0c0,117.2-0.1,234.4-0.1,351.6c0,49.5,0,98.9,0.1,148.4C23.3,751,22.7,751,22,751z"/>
<g>
	<path class="st0" d="M430.2,509.8c0,8.1-0.2,15.6,0.1,23c0.2,6.1-3.7,5.8-7.7,5.5c-3.9-0.3-9.4,2-9.4-5.4c0.1-18.5,0-36.9,0.3-55.4
		c0-1.7,2.3-4.9,3.3-4.8c3.8,0.4,8.7,0.7,10.9,3.1c4.8,5.2,8.2,11.7,12.2,17.7c2.5,3.8,5.2,7.5,8.9,12.8
		c6.5-10.1,12.4-19.2,18.4-28.2c1.4-2.1,2.8-4.7,4.8-5.7c6.7-3.2,12,0.3,12,7.8c0,17.2-0.4,34.3-0.1,51.5c0.1,6.4-3.1,7.1-8.1,7
		c-4.7-0.1-9.6,0.5-9.4-6.6c0.2-6.9,0-13.8-1.4-21.4c-2.6,4-5.3,8.1-7.9,12.1c-5,7.7-11.9,7.8-16.8,0.2c-2.7-4.1-5.2-8.2-7.9-12.3
		C432.2,510.4,431.5,510.4,430.2,509.8z"/>
	<path class="st0" d="M51.8,525.5c-10.7,0-21.5-0.4-32.2,0.1c-6.5,0.3-8.9-2.2-8.7-8.3c0.2-7.9,0.3-15.9,0.3-23.8
		c0-5.1,1.9-7.5,7.3-7.2c23.2,1.1,46.5,2.1,69.8,3c5,0.2,6.8,3.1,6.9,7.4c0.2,7.4,0,14.8-0.1,22.3c0,5.6-4.1,5.8-8,5.9
		c-11.8,0.1-23.5,0-35.3,0C51.8,525.1,51.8,525.3,51.8,525.5z"/>
	<path class="st0" d="M141.8,576.8c-0.5,10.2-1,20.5-1.6,30.7c-0.6,10.1-1.1,10.5-11.4,11.2c-4.6,0.3-9.2,0.4-13.8,0.4
		c-9.6,0.1-10.7-0.6-10.9-10.4c-0.4-21.8-0.2-43.6-0.3-65.4c0-5,2.3-6.8,7.1-6.5c8.4,0.6,16.9,1.1,25.4,1.3c5.1,0.1,6.6,2.4,6.6,7.1
		c-0.2,10.5,0,21,0,31.5C142.5,576.8,142.1,576.8,141.8,576.8z"/>
	<path class="st0" d="M194.2,523.7c-13.8-1.1-27.6-2.4-41.4-3.2c-5.2-0.3-7.5-2.5-6.8-7.7c0.1-1,0.1-2,0.1-3.1
		c1-22.2-3.2-20.3,21.3-21.2c19.9-0.7,39.9,1.4,59.9,2.2c5.2,0.2,6.6,2.7,6,7.5c-0.8,6.1-1.6,12.2-2.1,18.3c-0.4,4.5-2.7,6.3-7,6.2
		c-10-0.1-20,0-30,0C194.2,523,194.2,523.3,194.2,523.7z"/>
	<path class="st0" d="M369.4,539.4c-20.2,0-35.2-14.4-35.3-33.8c0-19.3,15.1-34.4,34.8-34.6c19.7-0.1,35,14.7,35.2,34.1
		C404.2,524.7,389.4,539.4,369.4,539.4z M351.1,505.3c0.1,10.1,8,18.2,17.8,18.4c10.2,0.1,18.1-8.2,18-18.8
		c-0.2-10.2-8.1-18.1-18-17.9C359,487.1,351,495.3,351.1,505.3z"/>
	<path class="st0" d="M670.9,490.9c-9.1,2.6-16,4.8-21.3-2.9c-1.4-2-6.5-2.2-9.8-1.9c-1.8,0.2-4.6,3.1-4.7,4.9
		c-0.1,1.7,2.3,4.6,4.2,5.3c5,1.8,10.4,2.6,15.6,4.1c10.2,2.9,14.9,8.1,15.5,16.7c0.6,9.1-4.2,16.2-13.5,20.2
		c-13.7,5.9-33.4,1.8-39.6-9c-2-3.4-1.6-8.2-2.3-12.4c5.5,0.9,12.5,0,16.2,3.1c5.1,4.2,9.6,6.6,15.8,5.2c1.7-0.4,3.5-2.7,4.1-4.5
		c0.3-0.8-2.2-3.3-3.8-3.7c-5.9-1.8-12-2.8-17.8-4.7c-9-2.9-13.2-8.6-13.6-17.4c-0.4-10.2,3.8-17.3,13-20.4
		c11.7-3.9,23.5-4,33.4,4.4C666,480.9,668,486.4,670.9,490.9z"/>
	<path class="st0" d="M730.6,492.9c-7.2,0-14.1,3-19.6-4.8c-1.5-2.1-6.9-2.2-10.5-1.9c-1.7,0.1-4,3.2-4.4,5.2c-0.2,1.3,2.2,4,4,4.7
		c5.1,1.8,10.4,2.7,15.6,4.2c10.2,2.9,15.5,8.7,15.8,17.4c0.3,9.3-5.1,16.8-15,20c-10.5,3.4-20.8,2.9-30.5-2.7
		c-2.8-1.6-6-3.7-7.4-6.4c-1.8-3.5-1.9-7.9-2.7-11.9c5.5,0.7,12.6-0.6,16.1,2.4c5,4.4,9.6,6.5,15.7,5.3c1.8-0.3,4.4-2.5,4.6-4.1
		c0.2-1.4-2.1-4-3.9-4.6c-5.3-1.8-10.9-2.8-16.3-4.4c-9.5-2.8-14.5-8.6-15.1-17.2c-0.6-8.6,4.1-16.6,12.5-20.2
		c10.5-4.5,21.2-4,31.1,1.7C726.9,479.1,730.8,484.7,730.6,492.9z"/>
	<path class="st0" d="M102.5,452.9c1.2-14,2.4-28.1,3.6-42.1c0.5-5.6,3-8.1,9-7.7c7.1,0.4,14.4-0.3,21.5,0.3
		c2.1,0.2,5.8,3.3,5.7,4.9c-1.1,18.9-2.8,37.7-4.4,56.6c-0.5,6.2-4.2,8.8-10.3,8.9c-5.4,0-10.8,0.5-16.1,1.1c-5.7,0.7-8-1.9-8-7.4
		c0.1-4.9,0-9.7,0-14.6C103.1,453,102.8,452.9,102.5,452.9z"/>
	<path class="st0" d="M294,498.8c5.4-6.2,11.6-11.8,16-18.6c6.4-9.8,15.1-8.4,26.2-6.9c-6.8,7.9-12.3,15.2-18.7,21.5
		c-4.9,4.9-4.7,8.3-0.5,13.5c7.2,8.9,13.7,18.5,20.5,27.8c-9.8,4.7-18.7,2.8-24.4-4.8c-3.5-4.7-7.1-9.4-10.7-14.1
		c-0.4-0.5-1.2-0.8-3.5-2.1c-2.4,4.7-5.9,9-6.7,13.8c-1.5,9.7-0.9,9.8-11.1,9.3c-1.7-0.1-3.5-0.5-6.1-0.9c0-12.2,0-24.2,0-36.2
		c0-6.4,0-12.8,0.1-19.2c0-9.8,0.1-9.6,9.8-9.6c5.4,0,7.3,1.9,7,7.2c-0.3,6.3-0.1,12.6-0.1,18.9C292.7,498.5,293.4,498.6,294,498.8z
		"/>
	<path class="st0" d="M611.4,537.5c-11.7,2.7-14.5,1.6-20.8-7c-1-1.4-3.3-2.3-5-2.5c-4.1-0.4-8.2,0.1-12.3-0.2
		c-5.8-0.4-10.2,0.5-12.5,7c-1.6,4.7-7.7,5.3-18.7,2.6c0.5-2.1,0.6-4.3,1.5-6.3c7.5-18.2,14.9-36.5,22.9-54.5
		c1.1-2.4,5.6-4.5,8.5-4.4c4.1,0.1,10.6,1.1,11.8,3.7c8.8,19.3,16.6,39.1,24.6,58.8C611.6,535.4,611.4,536.3,611.4,537.5z
		 M577,493.3c-2.7,7.3-4.6,12.5-6.7,18.3c4.8,0,8.6,0,13.3,0C581.4,505.6,579.6,500.5,577,493.3z"/>
	<path class="st0" d="M493.5,507c0-9.4,0.1-18.9,0-28.3c-0.1-4.9,1.9-6.9,6.9-6.7c7.9,0.3,15.9,0,23.8,0.4
		c14.5,0.6,22.4,8.1,23.7,22.1c1.2,13.5-6.3,23.8-19.9,26.8c-2.5,0.5-5.2,1-7.6,0.7c-7.2-1.1-9.8,1.7-8.8,8.8c0.7,5-0.9,8.5-7.2,7.9
		c-5.3-0.5-11.2,1-10.7-7.7c0.4-7.9,0.1-15.9,0.1-23.8C493.6,507,493.5,507,493.5,507z M511.1,496.2c0.6,4.7-1.2,10.8,7.4,10
		c6.9-0.7,12.4-4.5,12.5-9.9c0.1-5.5-5.3-8.5-13.8-8.7C510,487.4,511.2,492,511.1,496.2z"/>
	<path class="st0" d="M975.1,504c8.8,4.4,13.4,10.3,11.5,19.6c-1.6,8-7.9,13.2-18.8,14.2c-9.4,0.8-18.9,0.7-28.3,0.3
		c-1.9-0.1-5.2-3.3-5.2-5.2c-0.4-18.2-0.2-36.3-0.3-54.5c0-4.1,1.4-6.1,5.8-6c7.9,0.2,15.9-0.1,23.8,0.2c7.8,0.3,15,2.5,18.3,10.4
		C985.1,490.9,982.5,497.9,975.1,504z M956.5,507.8c0,0.2,0,0.4-0.1,0.6c-3.3,0-6.7-0.4-10,0.2c-1.7,0.3-4.3,2.3-4.5,3.8
		c-0.5,5.3-0.4,10.8-0.1,16.1c0.1,1.1,1.8,3.1,2.7,3c9.4-0.5,18.9-0.5,28.1-2.4c2.9-0.6,6.5-6.5,6.4-9.9c-0.1-3.3-4.1-7.6-7.5-9.1
		C967.1,508.1,961.6,508.4,956.5,507.8z M952.7,501.9c5.8-0.3,9.4-0.2,12.9-0.9c5.8-1.2,9.9-4.3,9.8-10.9
		c-0.1-6.5-4.2-9.9-10.1-10.5c-6.3-0.6-12.8-0.6-19.1-0.5c-1.4,0-4,1.5-4,2.4c-0.2,6.1-0.9,12.5,0.8,18.1
		C943.5,501.6,950.6,501.5,952.7,501.9z"/>
	<path class="st0" d="M796.9,539.2c-3.2-1.6-7-2.7-9.6-5c-4.2-3.7-7.7-8.2-11.5-12.4c-3.8-4.2-7.5-8.3-11.6-12.9
		c-7.3,5.7-14.4,10.7-12.7,21.2c0.2,1.2,0.4,2.8-0.2,3.8c-1,1.6-2.7,2.9-4.1,4.3c-1.2-1.4-3.3-2.7-3.4-4.1
		c-0.2-19.2-0.2-38.5,0.1-57.7c0-1.3,2.3-2.6,3.6-3.9c1.3,1.6,3.7,3.1,3.7,4.7c0.3,10,0.2,19.9,0.2,31.6c2.6-2,4.2-3,5.5-4.3
		c8.9-9.2,17.6-18.7,26.7-27.7c2.5-2.4,6.2-3.6,9.4-5.3c0.7,1,1.4,1.9,2.1,2.9c-6.5,7-12.6,14.5-19.7,20.8
		c-6.2,5.5-5.5,9.4-0.2,14.9c8.2,8.4,15.6,17.5,23.4,26.4C798,537.3,797.5,538.2,796.9,539.2z"/>
	<path class="st0" d="M918.2,495.7c0,5.6,0.3,11.3-0.1,16.9c-1,16.4-11.8,26.5-27.9,26.7c-15.5,0.1-26.7-9.9-27.6-26
		c-0.7-11.7-0.4-23.6-0.1-35.4c0-1.8,2.4-3.6,3.7-5.4c1.3,1.8,3.7,3.5,3.7,5.3c0.4,11,0.1,22,0.3,33.1c0.3,11.6,6.6,19.6,16.2,21.3
		c12.6,2.3,23.2-6.6,23.9-20.6c0.5-10,0.2-20,0.2-30c0-1.8-0.4-3.8,0.3-5.3c0.7-1.5,2.4-2.5,3.7-3.8c1.2,1.3,3.3,2.6,3.4,4
		C918.4,482.9,918.2,489.3,918.2,495.7z"/>
	<path class="st0" d="M810.2,538.1c0-21.2-0.1-41.3,0.2-61.5c0-1.4,2.6-2.7,3.9-4.1c1.2,1.9,3.3,3.8,3.4,5.7
		c0.3,14.6,0.6,29.2,0,43.8c-0.3,7.6,2.3,9.9,9.6,9.3c7.4-0.6,14.8-0.2,22.3,0.2c1.3,0.1,2.6,2.3,3.8,3.5c-1.2,1-2.3,3-3.5,3
		C836.8,538.2,823.9,538.1,810.2,538.1z"/>
	<path class="st0" d="M162.6,536c1.4,0.7,2.7,1.1,3.6,1.9c5.3,4.8,10.8,9.4,15.7,14.6c1.2,1.3,0.6,4.4,0.9,6.6c-2-0.1-4.7,0.5-6-0.6
		c-5.7-4.3-11.1-9-16.3-14c-1.3-1.2-1.5-4.1-1.3-6.1C159.2,537.7,161.3,536.9,162.6,536z"/>
	<path class="st0" d="M95.3,539c-2.1,3.2-2.7,4.7-3.8,5.6c-7.1,5.7-14.3,11.5-21.6,16.9c-1.4,1-3.9,0.3-5.9,0.4
		c0.6-1.9,0.7-4.6,2-5.7c7-5.9,14.1-11.6,21.5-17C88.9,538.1,91.6,539,95.3,539z"/>
	<path class="st0" d="M72.9,459.3c0.9,0.5,1.9,0.8,2.6,1.5c5.5,4.6,11.1,9,16.2,13.9c1.1,1.1,0.6,3.8,0.9,5.8c-1.8,0-4.1,0.8-5.4,0
		c-5.9-3.6-11.6-7.4-17-11.6c-1.3-1-1.9-3.8-1.8-5.7c0.1-1.9,1.7-3.6,2.6-5.4C71.6,458.2,72.2,458.8,72.9,459.3z"/>
	<path class="st0" d="M155.5,475.3c-0.4-1.8-1.7-4.5-1.1-5.1c7.4-6.6,15.1-13,22.9-19.2c0.7-0.5,3.3,0.2,4,1.1
		c0.6,0.8,0.5,3.4-0.2,4c-7.5,6.2-15.1,12.2-22.8,18.3C157.9,474.6,157.3,474.7,155.5,475.3z"/>
</g>
</svg>
