<?xml version="1.0" encoding="utf-8"?><svg id="Layer_1" xmlns="http://www.w3.org/2000/svg" viewBox="0 0 765.8 765.8"><style>.st0{fill:#fff}</style><path class="st0" d="M412.3 39.5c19 3.6 38.3 6.4 57.1 11 240.8 59.7 346.8 346.2 203.1 548.3-23 32.3-52.9 30-70.7-5.6-60.9-121.8-121.6-243.6-183-365.2-4.5-9-12-18.2-20.5-23.2-17.8-10.6-38.7-1.6-49.2 19.4-30.2 60-60.1 120.1-90.1 180.2-31.7 63.4-63.3 126.8-95.1 190.1-16.9 33.8-47.2 36.1-69.3 5.4C-62.2 381.3 75.7 71.9 343.2 42c3.6-.4 7.1-1.6 10.7-2.5h58.4zm33.6 81.3c64.7 129.3 129.1 258 194.3 388.5 78.5-173.3-38.3-361.8-194.3-388.5zM125.8 509.6C191.3 378.5 255.6 249.9 320.6 120c-161 31.7-271.2 217.4-194.8 389.6z"/><path class="st0" d="M385.1 748.5c-55.4-.1-106.5-11.4-154.9-34.6-25.4-12.2-31.9-30.6-19.4-55.7 45.8-91.9 91.9-183.7 137.7-275.7 7.2-14.5 17.5-23.9 34.3-24 16.7-.1 27.3 9 34.5 23.5 46 92.4 92.3 184.6 138.3 276.9 12.1 24.2 5.4 42.7-19.3 54.7-48.3 23.4-99.4 34.7-151.2 34.9zm-2-273.9c-31.6 63.2-62.1 124.2-92.6 185.3 50.3 22.4 147.5 21.8 184.8-1-30.4-60.7-60.8-121.4-92.2-184.3z"/></svg>