<?xml version="1.0" encoding="utf-8"?><svg id="Layer_1" xmlns="http://www.w3.org/2000/svg" viewBox="0 0 1000 1000"><style>.st0{fill:#fff}</style><path class="st0" d="M495.4 717.7c-101-.7-207.5-14-309.5-53.7-50.8-19.8-97.1-46.3-134.1-87.6-32.6-36.4-47.7-95.8-6.4-149 26.1-33.7 59.1-57.7 96.7-76.4 69.4-34.5 143.4-53.3 219.7-64 87.4-12.2 174.8-13.3 262.3-2.1 86.7 11.1 171 31.2 248.7 72.9 27.7 14.8 52.9 33.2 73.8 56.7 47.4 53.2 47.1 114.5-1 167.1-37.1 40.6-84.6 65.1-135.1 84.2-99 37.6-202.1 51.5-315.1 51.9zm3.3-26.8c20.5-1 41.1-1.4 61.5-3.1 66.5-5.4 131.5-18.1 193.4-43.6 38.6-16 74.5-36.6 102.8-68 46.1-51.2 44.8-110.5-3.1-160.2-25.9-26.8-57-45.8-90.9-60.8-60-26.5-123-40.9-188-46.8-104.3-9.5-206.6.2-305.9 34.8-45.4 15.9-87.7 37.8-121.2 73.4-48.6 51.8-47.6 112.5 1.7 163.5 24.1 24.9 52.7 43.1 84.1 57.2 84.5 38.2 173.7 52.7 265.6 53.6z"/><path class="st0" d="M501.7 671.2c-96.5.3-174.3-76.4-174.7-172.3-.4-96.5 76.4-174.3 172.4-174.6 97.5-.3 174.9 76.1 175.1 172.8.1 96.6-76.5 173.8-172.8 174.1zm147.6-238.9c-30.3 0-60.3-1.1-90.3.4-19.1 1-32.5 13.1-38.7 31.4-12.6 36.8 0 47 31.5 47.6 13.2.2 26.4-.4 39.6.6 4.1.3 10.1 4.5 11.1 8 1 3.7-1.9 10-5.2 12.9-3.4 3-9.3 4.3-14.1 4.5-18 .7-35.9.7-53.9.8-23.4.2-23.4.1-27.7 23.1-.2.9.3 2 .6 4.1h82.4c32 .1 53.8-21 54.9-52.9.4-13.1-6-23-18.7-26.3-7.3-1.9-15.2-2.4-22.8-2.7-11-.4-22 .4-33-.5-3.8-.3-10.6-5.2-10.2-6.9 1-5.2 3.8-11.1 7.8-14.2 3.6-2.7 9.8-2.5 14.8-2.7 14.3-.4 28.6-.3 42.9-.5 25.1-.3 25.1-.3 29.5-24.7.1-.5-.1-.8-.5-2zm-242.6-.6c-11 0-20.2-.4-29.3.3-2.5.2-6.4 3.5-7 5.9-6.4 29.4-13.2 58.7-17.9 88.4-3.9 24.5 7 37.1 31.8 38.3 24.9 1.2 49.9.5 74.8 1.1 6.8.2 7.5-4.1 8.6-8.9 5.9-28 11.9-55.9 17.9-83.9 2.9-13.5 5.8-26.9 8.8-40.7h-35.3c-7.7 35-15.3 69.2-23.1 104.4-9.7 0-18.8.2-27.9 0-18.9-.4-22.3-5.1-18.3-23.9 5.7-26.6 11.1-53.1 16.9-81zM820.8 431.9c.6 1.1 1 1.4 1 1.7-4.2 25.7-4.2 25.5-30.2 25.6-12.8.1-25.7.5-38.4 1.8-13 1.4-18.4 7.6-21.4 22.9h78.4c-1.4 8.9-2.1 16.8-4.3 24.3-.6 2.1-5.5 4.2-8.5 4.3-20.9.6-41.8.4-62.7 1.1-3.7.1-10.6 4-10.4 5.4.7 5.2 2.4 12.3 6.1 14.6 5.6 3.3 13.2 4 20 4.2 16 .5 32.1.2 48 .2.2 1.9.4 2.7.4 3.4-2.5 23.3-2.5 23.5-25.5 23.8-16.5.2-33 .9-49.4-.5-23.2-2.1-38.1-17.6-37.7-40.7.2-14.7 2.1-30.2 7.1-43.9 10.8-29.4 32.9-46.4 64.9-47.8 20.9-1.1 42-.4 62.6-.4zM262.3 565.5h-37.7c7.4-35.5 14.7-70.4 22.2-106.2-8-.7-15.5-1.3-24-2.1.5-4.1.8-7.7 1.5-11.1 2.9-15.4 3-15.7 18.8-15.3 7 .2 10.1-1.8 11.9-9 9.2-36.4 14.4-40.1 52.2-40.1h27.6c-1.5 8.1-2.3 15.2-4.3 22-.7 2.2-4.1 4.3-6.7 5.1-2.6.8-5.8-.1-8.7-.1-17.1-.5-21 3.1-23 21.7h32.6c-1.9 9.6-3.4 17.7-5.2 26.9h-34.1c-7.9 36.6-15.5 72.2-23.1 108.2z"/></svg>