<?xml version="1.0" encoding="utf-8"?><svg id="Layer_1" xmlns="http://www.w3.org/2000/svg" viewBox="0 0 1000 1000"><style>.st0{fill:#fff}</style><path class="st0" d="M22 751c0-21.8.1-43.6.1-65.4V504.3c0-73.9-.1-147.9-.1-221.8V251h2c0 117.2-.1 234.4-.1 351.6 0 49.5 0 98.9.1 148.4h-2zM430.2 509.8c0 8.1-.2 15.6.1 23 .2 6.1-3.7 5.8-7.7 5.5-3.9-.3-9.4 2-9.4-5.4.1-18.5 0-36.9.3-55.4 0-1.7 2.3-4.9 3.3-4.8 3.8.4 8.7.7 10.9 3.1 4.8 5.2 8.2 11.7 12.2 17.7 2.5 3.8 5.2 7.5 8.9 12.8 6.5-10.1 12.4-19.2 18.4-28.2 1.4-2.1 2.8-4.7 4.8-5.7 6.7-3.2 12 .3 12 7.8 0 17.2-.4 34.3-.1 51.5.1 6.4-3.1 7.1-8.1 7-4.7-.1-9.6.5-9.4-6.6.2-6.9 0-13.8-1.4-21.4-2.6 4-5.3 8.1-7.9 12.1-5 7.7-11.9 7.8-16.8.2-2.7-4.1-5.2-8.2-7.9-12.3-.2-.3-.9-.3-2.2-.9z"/><path class="st0" d="M51.8 525.5c-10.7 0-21.5-.4-32.2.1-6.5.3-8.9-2.2-8.7-8.3.2-7.9.3-15.9.3-23.8 0-5.1 1.9-7.5 7.3-7.2 23.2 1.1 46.5 2.1 69.8 3 5 .2 6.8 3.1 6.9 7.4.2 7.4 0 14.8-.1 22.3 0 5.6-4.1 5.8-8 5.9-11.8.1-23.5 0-35.3 0v.6zM141.8 576.8c-.5 10.2-1 20.5-1.6 30.7-.6 10.1-1.1 10.5-11.4 11.2-4.6.3-9.2.4-13.8.4-9.6.1-10.7-.6-10.9-10.4-.4-21.8-.2-43.6-.3-65.4 0-5 2.3-6.8 7.1-6.5 8.4.6 16.9 1.1 25.4 1.3 5.1.1 6.6 2.4 6.6 7.1-.2 10.5 0 21 0 31.5-.4.1-.8.1-1.1.1zM194.2 523.7c-13.8-1.1-27.6-2.4-41.4-3.2-5.2-.3-7.5-2.5-6.8-7.7.1-1 .1-2 .1-3.1 1-22.2-3.2-20.3 21.3-21.2 19.9-.7 39.9 1.4 59.9 2.2 5.2.2 6.6 2.7 6 7.5-.8 6.1-1.6 12.2-2.1 18.3-.4 4.5-2.7 6.3-7 6.2-10-.1-20 0-30 0v1zM369.4 539.4c-20.2 0-35.2-14.4-35.3-33.8 0-19.3 15.1-34.4 34.8-34.6 19.7-.1 35 14.7 35.2 34.1.1 19.6-14.7 34.3-34.7 34.3zm-18.3-34.1c.1 10.1 8 18.2 17.8 18.4 10.2.1 18.1-8.2 18-18.8-.2-10.2-8.1-18.1-18-17.9-9.9.1-17.9 8.3-17.8 18.3zM670.9 490.9c-9.1 2.6-16 4.8-21.3-2.9-1.4-2-6.5-2.2-9.8-1.9-1.8.2-4.6 3.1-4.7 4.9-.1 1.7 2.3 4.6 4.2 5.3 5 1.8 10.4 2.6 15.6 4.1 10.2 2.9 14.9 8.1 15.5 16.7.6 9.1-4.2 16.2-13.5 20.2-13.7 5.9-33.4 1.8-39.6-9-2-3.4-1.6-8.2-2.3-12.4 5.5.9 12.5 0 16.2 3.1 5.1 4.2 9.6 6.6 15.8 5.2 1.7-.4 3.5-2.7 4.1-4.5.3-.8-2.2-3.3-3.8-3.7-5.9-1.8-12-2.8-17.8-4.7-9-2.9-13.2-8.6-13.6-17.4-.4-10.2 3.8-17.3 13-20.4 11.7-3.9 23.5-4 33.4 4.4 3.7 3 5.7 8.5 8.6 13zM730.6 492.9c-7.2 0-14.1 3-19.6-4.8-1.5-2.1-6.9-2.2-10.5-1.9-1.7.1-4 3.2-4.4 5.2-.2 1.3 2.2 4 4 4.7 5.1 1.8 10.4 2.7 15.6 4.2 10.2 2.9 15.5 8.7 15.8 17.4.3 9.3-5.1 16.8-15 20-10.5 3.4-20.8 2.9-30.5-2.7-2.8-1.6-6-3.7-7.4-6.4-1.8-3.5-1.9-7.9-2.7-11.9 5.5.7 12.6-.6 16.1 2.4 5 4.4 9.6 6.5 15.7 5.3 1.8-.3 4.4-2.5 4.6-4.1.2-1.4-2.1-4-3.9-4.6-5.3-1.8-10.9-2.8-16.3-4.4-9.5-2.8-14.5-8.6-15.1-17.2-.6-8.6 4.1-16.6 12.5-20.2 10.5-4.5 21.2-4 31.1 1.7 6.3 3.5 10.2 9.1 10 17.3zM102.5 452.9c1.2-14 2.4-28.1 3.6-42.1.5-5.6 3-8.1 9-7.7 7.1.4 14.4-.3 21.5.3 2.1.2 5.8 3.3 5.7 4.9-1.1 18.9-2.8 37.7-4.4 56.6-.5 6.2-4.2 8.8-10.3 8.9-5.4 0-10.8.5-16.1 1.1-5.7.7-8-1.9-8-7.4.1-4.9 0-9.7 0-14.6-.4.1-.7 0-1 0z"/><path class="st0" d="M294 498.8c5.4-6.2 11.6-11.8 16-18.6 6.4-9.8 15.1-8.4 26.2-6.9-6.8 7.9-12.3 15.2-18.7 21.5-4.9 4.9-4.7 8.3-.5 13.5 7.2 8.9 13.7 18.5 20.5 27.8-9.8 4.7-18.7 2.8-24.4-4.8-3.5-4.7-7.1-9.4-10.7-14.1-.4-.5-1.2-.8-3.5-2.1-2.4 4.7-5.9 9-6.7 13.8-1.5 9.7-.9 9.8-11.1 9.3-1.7-.1-3.5-.5-6.1-.9v-36.2c0-6.4 0-12.8.1-19.2 0-9.8.1-9.6 9.8-9.6 5.4 0 7.3 1.9 7 7.2-.3 6.3-.1 12.6-.1 18.9.9.1 1.6.2 2.2.4zM611.4 537.5c-11.7 2.7-14.5 1.6-20.8-7-1-1.4-3.3-2.3-5-2.5-4.1-.4-8.2.1-12.3-.2-5.8-.4-10.2.5-12.5 7-1.6 4.7-7.7 5.3-18.7 2.6.5-2.1.6-4.3 1.5-6.3 7.5-18.2 14.9-36.5 22.9-54.5 1.1-2.4 5.6-4.5 8.5-4.4 4.1.1 10.6 1.1 11.8 3.7 8.8 19.3 16.6 39.1 24.6 58.8.2.7 0 1.6 0 2.8zM577 493.3c-2.7 7.3-4.6 12.5-6.7 18.3h13.3c-2.2-6-4-11.1-6.6-18.3zM493.5 507c0-9.4.1-18.9 0-28.3-.1-4.9 1.9-6.9 6.9-6.7 7.9.3 15.9 0 23.8.4 14.5.6 22.4 8.1 23.7 22.1 1.2 13.5-6.3 23.8-19.9 26.8-2.5.5-5.2 1-7.6.7-7.2-1.1-9.8 1.7-8.8 8.8.7 5-.9 8.5-7.2 7.9-5.3-.5-11.2 1-10.7-7.7.4-7.9.1-15.9.1-23.8-.2-.2-.3-.2-.3-.2zm17.6-10.8c.6 4.7-1.2 10.8 7.4 10 6.9-.7 12.4-4.5 12.5-9.9.1-5.5-5.3-8.5-13.8-8.7-7.2-.2-6 4.4-6.1 8.6zM975.1 504c8.8 4.4 13.4 10.3 11.5 19.6-1.6 8-7.9 13.2-18.8 14.2-9.4.8-18.9.7-28.3.3-1.9-.1-5.2-3.3-5.2-5.2-.4-18.2-.2-36.3-.3-54.5 0-4.1 1.4-6.1 5.8-6 7.9.2 15.9-.1 23.8.2 7.8.3 15 2.5 18.3 10.4 3.2 7.9.6 14.9-6.8 21zm-18.6 3.8c0 .2 0 .4-.1.6-3.3 0-6.7-.4-10 .2-1.7.3-4.3 2.3-4.5 3.8-.5 5.3-.4 10.8-.1 16.1.1 1.1 1.8 3.1 2.7 3 9.4-.5 18.9-.5 28.1-2.4 2.9-.6 6.5-6.5 6.4-9.9-.1-3.3-4.1-7.6-7.5-9.1-4.4-2-9.9-1.7-15-2.3zm-3.8-5.9c5.8-.3 9.4-.2 12.9-.9 5.8-1.2 9.9-4.3 9.8-10.9-.1-6.5-4.2-9.9-10.1-10.5-6.3-.6-12.8-.6-19.1-.5-1.4 0-4 1.5-4 2.4-.2 6.1-.9 12.5.8 18.1.5 2 7.6 1.9 9.7 2.3zM796.9 539.2c-3.2-1.6-7-2.7-9.6-5-4.2-3.7-7.7-8.2-11.5-12.4-3.8-4.2-7.5-8.3-11.6-12.9-7.3 5.7-14.4 10.7-12.7 21.2.2 1.2.4 2.8-.2 3.8-1 1.6-2.7 2.9-4.1 4.3-1.2-1.4-3.3-2.7-3.4-4.1-.2-19.2-.2-38.5.1-57.7 0-1.3 2.3-2.6 3.6-3.9 1.3 1.6 3.7 3.1 3.7 4.7.3 10 .2 19.9.2 31.6 2.6-2 4.2-3 5.5-4.3 8.9-9.2 17.6-18.7 26.7-27.7 2.5-2.4 6.2-3.6 9.4-5.3.7 1 1.4 1.9 2.1 2.9-6.5 7-12.6 14.5-19.7 20.8-6.2 5.5-5.5 9.4-.2 14.9 8.2 8.4 15.6 17.5 23.4 26.4-.6.8-1.1 1.7-1.7 2.7zM918.2 495.7c0 5.6.3 11.3-.1 16.9-1 16.4-11.8 26.5-27.9 26.7-15.5.1-26.7-9.9-27.6-26-.7-11.7-.4-23.6-.1-35.4 0-1.8 2.4-3.6 3.7-5.4 1.3 1.8 3.7 3.5 3.7 5.3.4 11 .1 22 .3 33.1.3 11.6 6.6 19.6 16.2 21.3 12.6 2.3 23.2-6.6 23.9-20.6.5-10 .2-20 .2-30 0-1.8-.4-3.8.3-5.3s2.4-2.5 3.7-3.8c1.2 1.3 3.3 2.6 3.4 4 .5 6.4.3 12.8.3 19.2zM810.2 538.1c0-21.2-.1-41.3.2-61.5 0-1.4 2.6-2.7 3.9-4.1 1.2 1.9 3.3 3.8 3.4 5.7.3 14.6.6 29.2 0 43.8-.3 7.6 2.3 9.9 9.6 9.3 7.4-.6 14.8-.2 22.3.2 1.3.1 2.6 2.3 3.8 3.5-1.2 1-2.3 3-3.5 3-13.1.2-26 .1-39.7.1zM162.6 536c1.4.7 2.7 1.1 3.6 1.9 5.3 4.8 10.8 9.4 15.7 14.6 1.2 1.3.6 4.4.9 6.6-2-.1-4.7.5-6-.6-5.7-4.3-11.1-9-16.3-14-1.3-1.2-1.5-4.1-1.3-6.1 0-.7 2.1-1.5 3.4-2.4zM95.3 539c-2.1 3.2-2.7 4.7-3.8 5.6-7.1 5.7-14.3 11.5-21.6 16.9-1.4 1-3.9.3-5.9.4.6-1.9.7-4.6 2-5.7 7-5.9 14.1-11.6 21.5-17 1.4-1.1 4.1-.2 7.8-.2zM72.9 459.3c.9.5 1.9.8 2.6 1.5 5.5 4.6 11.1 9 16.2 13.9 1.1 1.1.6 3.8.9 5.8-1.8 0-4.1.8-5.4 0-5.9-3.6-11.6-7.4-17-11.6-1.3-1-1.9-3.8-1.8-5.7.1-1.9 1.7-3.6 2.6-5.4.6.4 1.2 1 1.9 1.5zM155.5 475.3c-.4-1.8-1.7-4.5-1.1-5.1 7.4-6.6 15.1-13 22.9-19.2.7-.5 3.3.2 4 1.1.6.8.5 3.4-.2 4-7.5 6.2-15.1 12.2-22.8 18.3-.4.2-1 .3-2.8.9z"/></svg>